:SAMPLES-PER-SECOND 30
:FULLY-SPECIFIED
:DEGREES
47
root  -48.2874 20.7154 1.52152 177.539 78.7646 -173.468
RightUpLeg  -73.4734 -5.26846 3.71596
RightLeg  110.658 13.2506 -4.30568
RightFoot  -27.8926 -0.456145 -3.58968
RightToes  1.16415e-010 -3.18055e-015 8.94531e-016
Spine  62.2248 -2.00113 0.776412
Spine1  19.0979 2.01054 -6.27536
HEad  -47.5144 -2.93066 15.3045
LeftShoulder1  0 -2.69403e-036 -1.28585e-037
LeftArm  12.3005 -43.3041 -86.1625
LeftForeArm  5.46403 -14.7011 0.615042
LeftHand  -0.304622 2.94044 17.1527
RightShoulder  -2.48481e-017 0 -8.08114e-019
RightArm  -5.6446 39.9976 67.316
RightForeArm  -8.08653 15.1432 -12.0067
RightHand  1.96143 -12.7766 -12.3557
LeftUpLeg  -65.3804 -9.13589 1.78736
LeftLeg  120.233 -14.9707 1.25611
LeftFoot  -32.9849 -1.1262 -5.95026
LeftToes  4.502e-010 -1.85808e-011 5.37561e-011
48
root  -47.5127 19.5846 1.76814 175.805 78.3442 -175.08
RightUpLeg  -75.1798 -5.38659 4.62951
RightLeg  115.609 14.3353 -5.25037
RightFoot  -31.3875 -0.58338 -3.6937
RightToes  1.16415e-010 -3.18055e-015 8.94531e-016
Spine  63.1158 -2.16156 0.99207
Spine1  19.5071 2.26744 -7.07199
HEad  -48.4973 -2.67121 16.3307
LeftShoulder1  0 -2.69403e-036 -1.28585e-037
LeftArm  9.85863 -44.9651 -86.0843
LeftForeArm  11.8166 -11.8313 -1.30193
LeftHand  -0.321481 2.97993 17.8359
RightShoulder  -2.48481e-017 0 -8.08114e-019
RightArm  -10.6899 43.1303 64.7454
RightForeArm  -3.7009 11.8734 -9.36446
RightHand  1.95597 -12.7493 -12.3612
LeftUpLeg  -66.8785 -9.36213 3.17669
LeftLeg  125.867 -14.0854 -0.551508
LeftFoot  -33.3649 -1.49356 -7.90812
LeftToes  4.502e-010 -1.85808e-011 5.37561e-011
49
root  -46.7207 18.5637 1.96842 173.712 78.1078 -177.308
RightUpLeg  -76.9108 -5.58492 5.5555
RightLeg  120.186 15.5594 -6.08539
RightFoot  -33.773 -0.687245 -3.82987
RightToes  1.16415e-010 -3.18055e-015 8.94531e-016
Spine  64.1468 -2.6209 1.62737
Spine1  19.2323 2.67989 -8.37783
HEad  -49.24 -2.99379 17.2359
LeftShoulder1  0 -2.69403e-036 -1.28585e-037
LeftArm  10.9199 -45.3103 -86.8613
LeftForeArm  14.0757 -10.1862 -2.58087
LeftHand  -0.514941 2.5687 19.372
RightShoulder  -2.48481e-017 0 -8.08114e-019
RightArm  -12.3065 45.3056 61.5506
RightForeArm  -2.52879 9.08057 -8.25152
RightHand  1.95974 -12.737 -12.4713
LeftUpLeg  -68.1593 -9.36095 4.63867
LeftLeg  131.018 -12.6079 -2.45655
LeftFoot  -33.326 -1.82001 -9.77428
LeftToes  4.502e-010 -1.85808e-011 5.37561e-011
50
root  -45.9325 17.687 2.12645 171.229 78.0337 179.915
RightUpLeg  -78.446 -5.67796 6.30869
RightLeg  124.443 16.6698 -6.50957
RightFoot  -35.1045 -0.752678 -3.93214
RightToes  1.16415e-010 -3.18055e-015 8.94531e-016
Spine  65.2121 -3.0335 2.3505
Spine1  18.836 3.1826 -9.51892
HEad  -49.9868 -3.71928 17.8615
LeftShoulder1  0 -2.69403e-036 -1.28585e-037
LeftArm  13.4581 -44.4766 -88.2015
LeftForeArm  14.3059 -9.70898 -3.35865
LeftHand  -1.14624 1.65558 25.1206
RightShoulder  -2.48481e-017 0 -8.08114e-019
RightArm  -12.5972 47.0065 57.5413
RightForeArm  -2.49476 7.09969 -7.63186
RightHand  1.91163 -12.6211 -12.0585
LeftUpLeg  -69.0607 -9.32437 6.31606
LeftLeg  135.484 -10.4195 -4.49869
LeftFoot  -32.9792 -2.09725 -11.5487
LeftToes  4.502e-010 -1.85808e-011 5.37561e-011
51
root  -45.131 16.9869 2.25639 169.237 78.1003 177.26
RightUpLeg  -79.8658 -5.5195 7.02637
RightLeg  128.454 17.4465 -6.39448
RightFoot  -36.0313 -0.710015 -3.56209
RightToes  1.16415e-010 -3.18055e-015 8.94531e-016
Spine  65.9656 -3.33279 3.25562
Spine1  18.6879 3.90577 -10.3573
HEad  -51.0744 -4.9157 18.263
LeftShoulder1  0 -2.69403e-036 -1.28585e-037
LeftArm  17.9854 -42.6943 -89.5669
LeftForeArm  11.6121 -12.2156 -2.19167
LeftHand  -1.93648 0.931453 33.0759
RightShoulder  -2.48481e-017 0 -8.08114e-019
RightArm  -13.2573 48.498 52.7734
RightForeArm  -2.48919 5.41772 -7.07171
RightHand  1.88024 -12.589 -11.6224
LeftUpLeg  -69.5873 -9.30226 8.52516
LeftLeg  139.058 -7.4898 -6.67582
LeftFoot  -32.7131 -2.34716 -13.1613
LeftToes  4.502e-010 -1.85808e-011 5.37561e-011
52
root  -44.2722 16.464 2.37425 167.576 78.1917 174.38
RightUpLeg  -81.1783 -5.26736 7.80354
RightLeg  132.088 18.0416 -6.10234
RightFoot  -36.8435 -0.520735 -2.53755
RightToes  1.16415e-010 -3.18055e-015 8.94531e-016
Spine  66.3499 -3.78239 4.52675
Spine1  18.3194 4.83906 -11.4437
HEad  -52.1925 -6.67485 18.8939
LeftShoulder1  0 -2.69403e-036 -1.28585e-037
LeftArm  28.8786 -39.9796 -89.8098
LeftForeArm  1.29611 -17.7746 2.80114
LeftHand  -2.46951 0.535373 38.0711
RightShoulder  -2.48481e-017 0 -8.08114e-019
RightArm  -14.6567 49.3563 47.7483
RightForeArm  -2.60843 3.67923 -6.63058
RightHand  1.88309 -12.6559 -11.437
LeftUpLeg  -69.6537 -9.3602 11.1592
LeftLeg  141.657 -3.95328 -8.94474
LeftFoot  -32.7325 -2.5638 -14.3996
LeftToes  4.502e-010 -1.85808e-011 5.37561e-011
53
root  -43.3442 16.1153 2.51479 164.109 78.0982 169.249
RightUpLeg  -82.0555 -5.21312 8.47032
RightLeg  135.101 18.8384 -6.10489
RightFoot  -37.6476 -0.268783 -1.29242
RightToes  1.16415e-010 -3.18055e-015 8.94531e-016
Spine  66.3951 -4.21597 5.67605
Spine1  17.6467 5.67772 -12.6987
HEad  -52.83 -8.58161 19.8027
LeftShoulder1  0 -2.69403e-036 -1.28585e-037
LeftArm  43.7437 -37.632 -92.3129
LeftForeArm  -11.9737 -22.155 9.51508
LeftHand  -2.65556 0.280341 38.7327
RightShoulder  -2.48481e-017 0 -8.08114e-019
RightArm  -16.3601 49.6225 43.1226
RightForeArm  -3.41008 2.02135 -6.24181
RightHand  1.75885 -12.328 -10.341
LeftUpLeg  -69.0173 -9.52968 13.4625
LeftLeg  143.17 -0.137779 -11.2614
LeftFoot  -32.7748 -2.69114 -15.103
LeftToes  4.502e-010 -1.85808e-011 5.37561e-011
